<?xml version="1.0" standalone="no"?>
<svg xmlns:xlink="http://www.w3.org/1999/xlink" id="wave" style="transform:rotate(180deg); transition: 0.3s" viewBox="0 0 1440 440" version="1.1" xmlns="http://www.w3.org/2000/svg"><defs><linearGradient id="sw-gradient-0" x1="0" x2="0" y1="1" y2="0"><stop stop-color="rgba(239.372, 239.372, 239.372, 1)" offset="0%"/><stop stop-color="rgba(73, 148, 191, 1)" offset="100%"/></linearGradient></defs><path style="transform:translate(0, 0px); opacity:1" fill="url(#sw-gradient-0)" d="M0,396L18.5,352C36.9,308,74,220,111,190.7C147.7,161,185,191,222,190.7C258.5,191,295,161,332,183.3C369.2,205,406,279,443,264C480,249,517,147,554,110C590.8,73,628,103,665,146.7C701.5,191,738,249,775,278.7C812.3,308,849,308,886,264C923.1,220,960,132,997,117.3C1033.8,103,1071,161,1108,212.7C1144.6,264,1182,308,1218,337.3C1255.4,367,1292,381,1329,322.7C1366.2,264,1403,132,1440,95.3C1476.9,59,1514,117,1551,168.7C1587.7,220,1625,264,1662,242C1698.5,220,1735,132,1772,146.7C1809.2,161,1846,279,1883,293.3C1920,308,1957,220,1994,168.7C2030.8,117,2068,103,2105,117.3C2141.5,132,2178,176,2215,198C2252.3,220,2289,220,2326,198C2363.1,176,2400,132,2437,146.7C2473.8,161,2511,235,2548,264C2584.6,293,2622,279,2640,271.3L2658.5,264L2658.5,440L2640,440C2621.5,440,2585,440,2548,440C2510.8,440,2474,440,2437,440C2400,440,2363,440,2326,440C2289.2,440,2252,440,2215,440C2178.5,440,2142,440,2105,440C2067.7,440,2031,440,1994,440C1956.9,440,1920,440,1883,440C1846.2,440,1809,440,1772,440C1735.4,440,1698,440,1662,440C1624.6,440,1588,440,1551,440C1513.8,440,1477,440,1440,440C1403.1,440,1366,440,1329,440C1292.3,440,1255,440,1218,440C1181.5,440,1145,440,1108,440C1070.8,440,1034,440,997,440C960,440,923,440,886,440C849.2,440,812,440,775,440C738.5,440,702,440,665,440C627.7,440,591,440,554,440C516.9,440,480,440,443,440C406.2,440,369,440,332,440C295.4,440,258,440,222,440C184.6,440,148,440,111,440C73.8,440,37,440,18,440L0,440Z"/><defs><linearGradient id="sw-gradient-1" x1="0" x2="0" y1="1" y2="0"><stop stop-color="rgba(223, 107, 84, 1)" offset="0%"/><stop stop-color="rgba(255, 255, 255, 1)" offset="100%"/></linearGradient></defs><path style="transform:translate(0, 50px); opacity:0.9" fill="url(#sw-gradient-1)" d="M0,0L18.5,0C36.9,0,74,0,111,14.7C147.7,29,185,59,222,73.3C258.5,88,295,88,332,124.7C369.2,161,406,235,443,278.7C480,323,517,337,554,344.7C590.8,352,628,352,665,330C701.5,308,738,264,775,249.3C812.3,235,849,249,886,264C923.1,279,960,293,997,271.3C1033.8,249,1071,191,1108,183.3C1144.6,176,1182,220,1218,234.7C1255.4,249,1292,235,1329,242C1366.2,249,1403,279,1440,256.7C1476.9,235,1514,161,1551,176C1587.7,191,1625,293,1662,278.7C1698.5,264,1735,132,1772,95.3C1809.2,59,1846,117,1883,124.7C1920,132,1957,88,1994,124.7C2030.8,161,2068,279,2105,286C2141.5,293,2178,191,2215,154C2252.3,117,2289,147,2326,183.3C2363.1,220,2400,264,2437,242C2473.8,220,2511,132,2548,102.7C2584.6,73,2622,103,2640,117.3L2658.5,132L2658.5,440L2640,440C2621.5,440,2585,440,2548,440C2510.8,440,2474,440,2437,440C2400,440,2363,440,2326,440C2289.2,440,2252,440,2215,440C2178.5,440,2142,440,2105,440C2067.7,440,2031,440,1994,440C1956.9,440,1920,440,1883,440C1846.2,440,1809,440,1772,440C1735.4,440,1698,440,1662,440C1624.6,440,1588,440,1551,440C1513.8,440,1477,440,1440,440C1403.1,440,1366,440,1329,440C1292.3,440,1255,440,1218,440C1181.5,440,1145,440,1108,440C1070.8,440,1034,440,997,440C960,440,923,440,886,440C849.2,440,812,440,775,440C738.5,440,702,440,665,440C627.7,440,591,440,554,440C516.9,440,480,440,443,440C406.2,440,369,440,332,440C295.4,440,258,440,222,440C184.6,440,148,440,111,440C73.8,440,37,440,18,440L0,440Z"/></svg>